<?xml version="1.0" encoding="UTF-8"?>
<svg width="200" height="100" viewBox="0 0 200 100" fill="none" xmlns="http://www.w3.org/2000/svg">
  <path d="M50 20C50 20 80 10 100 10C120 10 150 20 150 20C150 20 170 50 170 60C170 70 150 80 150 80C150 80 120 90 100 90C80 90 50 80 50 80C50 80 30 70 30 60C30 50 50 20 50 20Z" stroke="#FFFFFF" stroke-width="4" fill="none"/>
  <path d="M50 20C50 20 80 30 100 30C120 30 150 20 150 20" stroke="#FFFFFF" stroke-width="4" fill="none"/>
  <path d="M30 60L170 60" stroke="#FFFFFF" stroke-width="4"/>
</svg>